<?xml version="1.0" encoding="UTF-8"?>
<svg id="Lag_1" data-name="Lag 1" xmlns="http://www.w3.org/2000/svg" xmlns:xlink="http://www.w3.org/1999/xlink" viewBox="0 0 1505 250">
  <defs>
    <style>
      .cls-1 {
        clip-path: url(#clippath);
      }

      .cls-2 {
        fill: none;
      }

      .cls-2, .cls-3, .cls-4, .cls-5 {
        stroke-width: 0px;
      }

      .cls-6 {
        opacity: .85;
      }

      .cls-3 {
        fill: #00557a;
      }

      .cls-4 {
        fill: #00739f;
      }

      .cls-5 {
        fill: #012f4a;
      }
    </style>
    <clipPath id="clippath">
      <rect class="cls-2" x="-.46" y="-2.53" width="1504.96" height="254.82"/>
    </clipPath>
  </defs>
  <g class="cls-1">
    <g>
      <path class="cls-4" d="m1537.24,549.44c-55.87,14.79-96.17,11.19-130.06,6.75-44.89-5.88-80.32-17.42-126.93-30.75-33.79-9.66-73.27-22.89-128.75-22.89-55.45,0-94.27,9.22-126.78,14.3-46.28,7.22-79.79,11.86-126.07,19.09-32.52,5.08-71.33,14.3-126.79,14.3-55.45,0-94.27-9.22-126.79-14.3-46.28-7.22-79.79-11.86-126.07-19.09-32.52-5.08-71.34-14.3-126.79-14.3-55.45,0-94.27,9.22-126.79,14.3-46.28,7.22-79.79,11.86-126.08,19.09-32.52,5.08-71.34,14.3-126.79,14.3-54.85,0-93.91-5.06-126.18-5.37-47.02-.45-80.17,2.77-126-6.29-31.57-6.23-68.16-21.14-121.37-35.23-16.1-4.26-27.55-4.74-31.48-10.98-4.87-7.73,2.19-18.89,4.35-33.28,1.36-9.04-2.81-20.21-2.81-33.16,0-15.69,9.33-24.96,14.96-33.91,6.77-10.76,10.97-21.88,17.75-32.64,5.64-8.95,14.97-18.23,14.97-33.92s-9.33-24.96-14.96-33.91c-6.77-10.76-10.97-21.88-17.75-32.64-5.64-8.95-14.97-18.23-14.97-33.92s9.33-24.97,14.96-33.92c6.77-10.76,10.97-21.88,17.75-32.64,5.64-8.95,14.97-18.23,14.97-33.92,0-14.41-11.5-28.11-19.15-42.51s-11.88-30.98-17.8-42.97c-8.69-17.59-13.58-32.59,7.02-38.04,55.87-14.79,96.17-11.19,130.06-6.75C-198.25.11-162.82,11.66-116.21,24.98c33.79,9.66,73.27,22.89,128.75,22.89s94.27-9.22,126.78-14.3c46.28-7.22,79.79-11.86,126.07-19.09C297.92,9.41,336.73.19,392.19.19s94.27,9.22,126.79,14.3c46.28,7.22,79.79,11.86,126.07,19.09,32.52,5.08,71.34,14.3,126.79,14.3s94.27-9.22,126.79-14.3c46.28-7.22,79.79-11.86,126.08-19.09,32.52-5.08,71.34-14.3,126.79-14.3s93.91,5.06,126.18,5.37c47.02.45,80.17-2.77,126,6.29,31.57,6.23,68.16,21.14,121.37,35.23,16.1,4.26,27.55,4.74,31.48,10.98,4.87,7.73-2.19,18.89-4.35,33.28-1.36,9.04,2.81,20.21,2.81,33.16,0,15.69-9.33,24.96-14.96,33.91-6.77,10.76-10.97,21.88-17.75,32.64-5.64,8.95-14.97,18.23-14.97,33.92s9.33,24.96,14.96,33.91c6.77,10.76,10.97,21.88,17.75,32.64,5.64,8.95,14.97,18.23,14.97,33.92s-10.37,25.42-17.17,35.21c-7.79,11.21-12.91,23.36-19.45,34.12-6.13,10.09-14.5,20.9-10.3,37.12,4.03,15.58,15.65,27.55,22.34,40.03,8.33,15.54,12.1,31.3,17.5,42.14,8.33,16.75,11.75,29.45-10.65,35.38Z"/>
      <g class="cls-6">
        <path class="cls-3" d="m1742.27,613.17c-203.8,22.59-204.71-59.91-408.96-78.03-204.25-18.11-207.96,23.73-412.2,5.62-204.25-18.11-200.54-59.96-404.79-78.07-204.25-18.11-207.96,23.73-412.21,5.62s-204.08-18.99-400.67-77.29c-39.72-11.78-22.67-23.21-18.46-64.42,4.2-41.21,46-36.95,50.2-78.17s-37.59-45.48-33.39-86.69c4.2-41.22,46-36.96,50.2-78.17s-55.98-100.88-14.81-105.44C-59.02-44.46-58.12,38.04,146.13,56.15c204.25,18.11,207.96-23.73,412.2-5.62,204.25,18.11,200.54,59.96,404.79,78.07,204.25,18.11,207.96-23.73,412.21-5.62,204.25,18.11,204.08,18.99,400.67,77.29,39.72,11.78,22.67,23.21,18.46,64.42-4.2,41.21-46,36.95-50.2,78.17s37.59,45.48,33.39,86.69-56.12,42.38-50.08,83.36c8.35,56.72,55.87,95.69,14.69,100.25Z"/>
      </g>
      <g class="cls-6">
        <path class="cls-5" d="m1630.14,653.94c-155.6,70.16-180.58-22.17-350.34-4.3-169.75,17.87-165.35,59.65-335.1,77.51-169.75,17.87-174.15-23.91-343.9-6.04-169.75,17.87-165.36,59.65-335.11,77.51s-170.4,30.02-337.31-5.69c-54.8-11.73-31.98-32.57-38.71-88.2s34.97-60.68,28.24-116.31c-6.73-55.63-48.44-50.59-55.17-106.22-6.73-55.64,34.97-60.68,28.24-116.32s-94.04-104.86-42.95-127.9c155.6-70.16,180.58,22.17,350.34,4.3,169.75-17.87,165.35-59.65,335.1-77.51,169.75-17.87,174.15,23.91,343.9,6.04,169.75-17.87,165.36-59.65,335.11-77.51,169.75-17.87,170.4-30.02,337.31,5.69,54.8,11.73,31.98,32.57,38.71,88.2,6.73,55.63-34.97,60.68-28.24,116.31,6.73,55.63,48.44,50.59,55.17,106.22,6.73,55.64-47.56,69.43-26.91,121.53,27.02,68.19,92.71,99.65,41.63,122.68Z"/>
      </g>
    </g>
  </g>
</svg>