<?xml version="1.0" encoding="UTF-8"?>
<svg id="Lag_1" data-name="Lag 1" xmlns="http://www.w3.org/2000/svg" xmlns:xlink="http://www.w3.org/1999/xlink" viewBox="0 0 1545 250">
  <defs>
    <style>
      .cls-1 {
        clip-path: url(#clippath);
      }

      .cls-2 {
        fill: none;
      }

      .cls-2, .cls-3, .cls-4, .cls-5 {
        stroke-width: 0px;
      }

      .cls-6 {
        opacity: .85;
      }

      .cls-3 {
        fill: #00557a;
      }

      .cls-4 {
        fill: #00739f;
      }

      .cls-5 {
        fill: #012f4a;
      }
    </style>
    <clipPath id="clippath">
      <rect class="cls-2" x="-.5" width="1546" height="250"/>
    </clipPath>
  </defs>
  <g class="cls-1">
    <g>
      <path class="cls-4" d="m1592.33,550.08c-57.36,14.77-98.69,11.19-133.43,6.79-46.2-5.85-82.46-17.45-130.35-30.81-34.63-9.66-75.17-22.91-132.14-22.91-56.94,0-96.82,9.22-130.22,14.29-47.57,7.23-81.96,11.87-129.52,19.09-33.4,5.07-73.28,14.29-130.22,14.29-56.94,0-96.83-9.22-130.22-14.29-47.57-7.23-81.96-11.87-129.53-19.09-33.4-5.07-73.28-14.29-130.22-14.29s-96.83,9.22-130.22,14.29c-47.57,7.23-81.96,11.87-129.53,19.09-33.4,5.07-73.28,14.29-130.22,14.29-56.36,0-96.47-5.06-129.63-5.37-48.29-.45-82.32,2.77-129.46-6.29-32.47-6.24-70.18-21.17-124.94-35.26-16.17-4.16-27.6-4.62-31.5-10.88-4.8-7.71,2.31-18.88,4.5-33.27,1.37-9.05-2.78-20.22-2.78-33.15,0-15.68,9.33-24.94,14.96-33.89,6.77-10.75,10.97-21.87,17.75-32.62,5.64-8.94,14.97-18.21,14.97-33.89s-9.33-24.95-14.96-33.89c-6.77-10.75-10.97-21.87-17.75-32.62-5.64-8.94-14.97-18.21-14.97-33.89s9.33-24.95,14.96-33.89c6.77-10.75,10.97-21.87,17.75-32.62,5.64-8.94,14.97-18.21,14.97-33.89,0-14.39-11.49-28.1-19.12-42.52-7.69-14.52-11.82-31-17.74-43-8.7-17.64-13.56-32.65,7.08-37.97,57.36-14.77,98.69-11.19,133.43-6.79C-189.79.99-153.53,12.59-105.64,25.95c34.63,9.66,75.17,22.91,132.14,22.91s96.82-9.22,130.22-14.29c47.57-7.23,81.96-11.87,129.52-19.09,33.4-5.07,73.28-14.29,130.22-14.29s96.83,9.22,130.22,14.29c47.57,7.23,81.96,11.87,129.53,19.09,33.4,5.07,73.28,14.29,130.22,14.29s96.83-9.22,130.22-14.29c47.57-7.23,81.96-11.87,129.53-19.09,33.4-5.07,73.28-14.29,130.22-14.29s96.47,5.06,129.63,5.37c48.29.45,82.32-2.77,129.46,6.29,32.47,6.24,70.18,21.17,124.94,35.26,16.17,4.16,27.6,4.62,31.5,10.88,4.8,7.71-2.31,18.88-4.5,33.27-1.37,9.05,2.78,20.22,2.78,33.15,0,15.68-9.33,24.94-14.96,33.89-6.77,10.75-10.97,21.87-17.75,32.62-5.64,8.94-14.97,18.21-14.97,33.89s9.33,24.95,14.96,33.89c6.77,10.75,10.97,21.87,17.75,32.62,5.64,8.94,14.97,18.21,14.97,33.89s-10.37,25.4-17.17,35.18c-7.78,11.2-12.9,23.34-19.44,34.09-6.13,10.08-14.5,20.88-10.32,37.08s15.62,27.56,22.3,40.06c8.3,15.55,12.05,31.32,17.43,42.18,8.34,16.81,11.75,29.51-10.7,35.29Z"/>
      <g class="cls-6">
        <path class="cls-3" d="m1803.12,613.73c-209.37,22.57-210.25-59.91-420.05-78.01-209.8-18.1-213.41,23.75-423.21,5.65-209.8-18.1-206.19-59.95-415.99-78.05-209.8-18.1-213.41,23.75-423.22,5.65-209.8-18.1-209.65-18.94-411.98-77.31-39.79-11.48-22.4-23.19-18.08-64.37,4.32-41.18,46.1-36.8,50.41-77.99,4.32-41.18-37.46-45.56-33.15-86.75,4.32-41.19,46.1-36.81,50.41-77.99,4.32-41.19-55.68-101.01-14.51-105.44C-46.86-43.46-45.98,39.03,163.82,57.13c209.8,18.1,213.41-23.75,423.21-5.65,209.8,18.1,206.19,59.95,415.99,78.05,209.8,18.1,213.41-23.75,423.22-5.65,209.8,18.1,209.65,18.94,411.98,77.31,39.79,11.48,22.4,23.19,18.08,64.37-4.32,41.18-46.1,36.8-50.41,77.99-4.32,41.18,37.46,45.56,33.15,86.75-4.32,41.19-56.23,42.2-50.31,83.18,8.19,56.73,55.58,95.81,14.41,100.25Z"/>
      </g>
      <g class="cls-6">
        <path class="cls-5" d="m1704.37,600.17c-160.52,70.41-184.94-22.28-359.31-4.42-174.36,17.85-170.08,59.64-344.45,77.5-174.37,17.85-178.65-23.94-353.01-6.08-174.37,17.85-170.09,59.65-344.46,77.5-174.37,17.85-174.99,29.97-346.59-5.75-54.84-11.42-32.04-32.43-38.96-88.02-6.92-55.59,34.77-60.77,27.86-116.36s-48.6-50.4-55.52-105.99c-6.92-55.59,34.77-60.78,27.86-116.37-6.92-55.59-94.42-105.33-43.11-127.83,160.52-70.41,184.94,22.28,359.31,4.42,174.36-17.85,170.08-59.64,344.45-77.5,174.37-17.85,178.65,23.94,353.01,6.08,174.37-17.85,170.09-59.65,344.46-77.5,174.37-17.85,174.99-29.97,346.59,5.75,54.84,11.42,32.04,32.43,38.96,88.02s-34.77,60.77-27.86,116.36c6.92,55.59,48.6,50.4,55.52,105.99,6.92,55.59-47.28,69.53-26.52,121.56,27.21,68.21,93.08,100.14,41.78,122.64Z"/>
      </g>
    </g>
  </g>
</svg>